<svg class="tds-icon tds-icon-steering-wheel" viewBox="0 0 24 24" xmlns="http://www.w3.org/2000/svg" style="color: rgb(62, 106, 225);"><path fill="currentColor" d="M2 8.719v6.076A3.204 3.204 0 0 0 5.202 18h13.596A3.204 3.204 0 0 0 22 14.795V8.73c0-.813-.802-1.382-1.569-1.113-.376.133-.78.167-1.174.1L17.97 7.5a35.6 35.6 0 0 0-11.635-.04l-1.624.264a2.3 2.3 0 0 1-1.154-.104A1.167 1.167 0 0 0 2 8.719m7.117 4.6.728 1.855c.173.44.26.661.154.817s-.343.156-.816.156H7.41c-1.677 0-2.516 0-3.037-.522s-.521-1.344-.521-2.988c0-.54 0-.811.156-.968.157-.156.408-.156.912-.156h1.548c.939 0 1.408 0 1.77.247.364.247.535.685.879 1.56Zm5.767 0c.344-.874.516-1.312.878-1.559.363-.247.832-.247 1.772-.247h1.548c.503 0 .755 0 .91.156.157.157.157.427.157.968 0 1.644 0 2.466-.52 2.988-.522.522-1.36.522-3.038.522h-1.773c-.473 0-.71 0-.816-.156s-.019-.376.154-.817z"></path><path fill="currentColor" fill-rule="evenodd" d="M12 22c5.523 0 10-4.477 10-10S17.523 2 12 2 2 6.477 2 12s4.477 10 10 10M4.487 8.887c-.15.372.212.723.596.608a24.35 24.35 0 0 1 13.862 0c.385.115.748-.236.596-.608C18.328 5.903 15.415 3.8 12.014 3.8S5.701 5.903 4.487 8.887m-.479 4.618a.475.475 0 0 1 .478-.555h1.171a4.444 4.444 0 0 1 4.444 4.444v1.92c0 .324-.303.563-.61.463a8.18 8.18 0 0 1-5.483-6.272m15.507-.555c.3 0 .533.261.478.555a8.18 8.18 0 0 1-5.454 6.262c-.307.102-.612-.137-.612-.461v-1.912a4.444 4.444 0 0 1 4.445-4.444z"></path></svg>
